<svg width="626" height="626" viewBox="0 0 165.629 165.629" xmlns="http://www.w3.org/2000/svg"><path d="M69.786 146.931c-1.064-.231-.706-1.603 1.13-4.325.873-1.295 1.288-2.276 1.678-3.97.822-3.563.888-5.72.422-13.758-.251-4.326-.367-8.696-.27-10.252.094-1.545.064-2.712-.071-2.712-.308 0-1.524 1.801-1.767 2.616-.49 1.647-.56 5.22-.198 10.084.488 6.543.327 10.93-.48 13.088-1.564 4.179-6.322 6.552-11.518 5.744-1.13-.176-2.119-.385-2.2-.466-.284-.285.98-2.101 1.863-2.677 2.63-1.715 3.101-2.185 3.716-3.708.603-1.494.616-1.703.538-8.798-.045-3.998-.126-7.314-.182-7.37-.055-.055-.97.046-2.032.226-2.995.505-7.63.4-10.274-.235-4.113-.986-7.565-3.199-9.594-6.149-.856-1.244-2.24-4.176-3.174-6.72-.837-2.28-2.41-4.06-5.352-6.056-1.654-1.121-3.283-3.293-2.728-3.635.648-.4 2.833-.528 4.342-.253 3.412.622 5.23 2.01 10.014 7.644 5.4 6.36 9.584 7.611 17.274 5.165 2.165-.689 2.185-.704 2.45-1.78.505-2.046 2.03-4.766 3.676-6.556 1.841-2.003 1.93-1.858-1.43-2.344-2.82-.408-7.934-1.644-10.73-2.594-2.72-.923-7.189-3.074-9.39-4.52-3.123-2.05-6.72-5.856-8.319-8.803l-.474-.875-2.345.076c-7.223.232-18.755 1.66-27.416 3.392-1.857.371-3.516.629-3.687.572-.449-.15 7.307-1.966 11.032-2.584 3.586-.594 12.734-1.465 18.19-1.73 3.344-.163 3.638-.218 3.638-.683 0-.906-1.624-2.373-3.052-2.756l-1.314-.352 1.257-.018c1.479-.021 1.474-.003.741-2.884-1.057-4.16-1.504-10.537-1.103-15.725.63-8.134 3.045-14.968 6.597-18.664l1.043-1.086-.65-2.46c-.601-2.27-.64-2.792-.52-6.824.142-4.74.451-6.324 1.816-9.317l.81-1.776 1.223.135c6.44.713 10.793 2.409 17.421 6.785 2.165 1.43 2.53 1.479 5.364.728 4.654-1.234 8.971-1.676 16.537-1.693 7.112-.017 7.16-.013 11.015.84 6.112 1.355 6.858 1.233 11.749-1.914a413.77 413.77 0 012.969-1.898c1.902-1.184 6.693-2.451 10.811-2.86l1.62-.161.559 1.398c1.714 4.287 2.365 10.993 1.493 15.389l-.463 2.329.762.704c3.171 2.93 5.792 8.245 7.332 14.867.357 1.537.964 7.698.966 9.813.003 3.207-.707 9.598-1.308 11.764-.278 1.002-.445 1.884-.372 1.959.073.075 1.94.267 4.15.427 3.904.284 3.946.293 1.501.333-3.764.061-5.57.416-6.284 1.236-.327.376-.595.91-.595 1.186 0 .604.135.629 6.218 1.171 11.792 1.051 18.612 1.993 24.836 3.429 2.77.638 4.195 1.166 2.284.845-16.168-2.718-24.545-3.796-30.523-3.93l-2.873-.063-.437.794c-1.681 3.06-5.178 7.033-7.741 8.796-2.702 1.858-6.226 3.638-9.359 4.726-2.554.887-8.583 2.149-11.339 2.372-2.817.229-2.858.377-.832 3 1.958 2.534 2.895 4.29 3.47 6.506.42 1.613.467 2.67.366 8.202a735.294 735.294 0 00-.114 11.245c.004 6.97.613 8.918 3.465 11.076.704.533 1.624 1.317 2.044 1.742l.764.772-.702.604c-1.125.968-2.579 1.238-4.721.877-2.389-.403-4.456-1.5-6.368-3.38-2.54-2.496-2.703-3.767-2.188-17.13.172-4.448.146-6.178-.11-7.276-.361-1.553-1.553-4.01-1.854-3.825-.102.063-.275 2.65-.386 5.747-.11 3.098-.28 7.181-.376 9.073-.228 4.49.076 9.55.725 12.064.36 1.392.932 2.642 1.863 4.069.943 1.444 1.344 2.325 1.344 2.95v.893h-1.99c-4.835 0-7.425-2.178-8.991-7.563-.78-2.68-1.119-8.02-1.165-18.366-.024-5.495-.358-9.683-.809-10.145-.271-.278-1.323.26-1.358.695-.014.177-.05 5.798-.078 12.492-.046 10.602-.112 12.393-.512 13.891-1.339 5.018-2.975 7.38-5.915 8.54-1.16.458-4.027.77-5.045.548zM1.74 81.131c.172-.189 4.432-1.049 7.39-1.492 2.998-.449 18.083-1.032 17.066-.66-.145.054-2.56.225-5.365.38-5.457.303-11.952.94-17.918 1.757-.728.1-1.255.106-1.173.015zm157.806-.203c-4.834-.702-10.138-1.341-12.7-1.532l-2.91-.216 3.307-.037a62.261 62.261 0 0111.97 1.03c3.444.648 4.561 1.023 2.979 1-.582-.008-1.773-.118-2.646-.245z"/></svg>