<?xml version="1.0" encoding="UTF-8" standalone="no"?>
<svg
   viewBox="0 0 200 200"
   version="1.1"
   id="svg23"
   sodipodi:docname="js.svg"
   inkscape:version="1.1 (c68e22c387, 2021-05-23)"
   xmlns:inkscape="http://www.inkscape.org/namespaces/inkscape"
   xmlns:sodipodi="http://sodipodi.sourceforge.net/DTD/sodipodi-0.dtd"
   xmlns="http://www.w3.org/2000/svg"
   xmlns:svg="http://www.w3.org/2000/svg">
  <sodipodi:namedview
     id="namedview25"
     pagecolor="#ffffff"
     bordercolor="#111111"
     borderopacity="1"
     inkscape:pageshadow="0"
     inkscape:pageopacity="0"
     inkscape:pagecheckerboard="1"
     showgrid="false"
     inkscape:zoom="7.53"
     inkscape:cx="108.96414"
     inkscape:cy="115.80345"
     inkscape:window-width="2160"
     inkscape:window-height="1346"
     inkscape:window-x="-11"
     inkscape:window-y="-11"
     inkscape:window-maximized="1"
     inkscape:current-layer="svg23" />
  <defs
     id="defs7">
    <linearGradient
       id="a"
       x1="20"
       y1="110"
       x2="200"
       y2="110"
       gradientUnits="userSpaceOnUse">
      <stop
         offset="0"
         stop-color="#ccba56"
         id="stop2" />
      <stop
         offset="1"
         stop-color="#ccba56"
         id="stop4" />
    </linearGradient>
  </defs>
  <title
     id="title9">js</title>
  <rect
     width="200"
     height="200"
     style="fill:#fee86e"
     id="rect11" />
  <polygon
     points="200 40 180 20 20 180 40 200 200 200 200 40"
     style="fill:url(#a)"
     id="polygon13" />
  <rect
     x="20"
     y="20"
     width="160"
     height="160"
     style="fill:#f0db4f"
     id="rect15" />
  <path
     d="m 171.81116,156.90748 a 12.731,12.731 0 0 1 -4.8,10.512 q -4.8,3.841 -13.358,3.841 a 31.374,31.374 0 0 1 -13.949,-2.965 v -9.7 a 57.335,57.335 0 0 0 8.439,3.133 24.937,24.937 0 0 0 6.318,0.91 8.975,8.975 0 0 0 5.272,-1.314 4.493,4.493 0 0 0 1.836,-3.908 4.317,4.317 0 0 0 -0.809,-2.577 9.047,9.047 0 0 0 -2.375,-2.173 61.272,61.272 0 0 0 -6.385,-3.335 30.249,30.249 0 0 1 -6.772,-4.077 15.282,15.282 0 0 1 -3.6,-4.548 12.979,12.979 0 0 1 -1.348,-6.064 12.731,12.731 0 0 1 4.43,-10.276 q 4.43,-3.74 12.248,-3.739 a 28.925,28.925 0 0 1 7.328,0.909 50.546,50.546 0 0 1 7.294,2.561 l -3.369,8.12 a 49.284,49.284 0 0 0 -6.52,-2.258 21.027,21.027 0 0 0 -5.07,-0.64 6.716,6.716 0 0 0 -4.549,1.381 4.558,4.558 0 0 0 -1.583,3.605 4.458,4.458 0 0 0 0.64,2.408 7.037,7.037 0 0 0 2.039,1.988 62.965,62.965 0 0 0 6.62,3.453 q 6.905,3.3 9.467,6.62 a 12.922,12.922 0 0 1 2.556,8.133 z"
     style="fill:#231f20"
     id="path19" />
  <text
     xml:space="preserve"
     style="font-style:normal;font-weight:normal;font-size:40px;line-height:1.25;font-family:sans-serif;fill:#000000;fill-opacity:1;stroke:none"
     x="117.92829"
     y="138.64542"
     id="text1560"><tspan
       sodipodi:role="line"
       id="tspan1558"></tspan></text>
  <text
     xml:space="preserve"
     style="font-style:normal;font-weight:normal;font-size:40px;line-height:1.25;font-family:sans-serif;fill:#000000;fill-opacity:1;stroke:none"
     x="47.011951"
     y="89.110229"
     id="text17472"><tspan
       sodipodi:role="line"
       id="tspan17470"></tspan></text>
  <text
     xml:space="preserve"
     style="font-style:normal;font-weight:normal;font-size:40px;line-height:1.25;font-family:sans-serif;fill:#000000;fill-opacity:1;stroke:none"
     x="130.81009"
     y="164.67464"
     id="text23776"><tspan
       sodipodi:role="line"
       id="tspan23774"></tspan></text>
  <text
     xml:space="preserve"
     style="font-style:normal;font-variant:normal;font-weight:bold;font-stretch:normal;font-size:69.3581px;line-height:1.25;font-family:Arial;-inkscape-font-specification:'Arial Bold';fill:#231f20;fill-opacity:1;stroke:none;stroke-width:0.928902"
     x="102.90424"
     y="170.74925"
     id="text38543"
     transform="scale(0.99710919,1.0028992)"><tspan
       sodipodi:role="line"
       id="tspan38541"
       x="102.90424"
       y="170.74925"
       style="fill:#231f20;fill-opacity:1;stroke-width:0.928902">J</tspan></text>
</svg>
