<?xml version="1.0" encoding="UTF-8" standalone="no"?>
<svg
   viewBox="0 0 200 200"
   version="1.1"
   id="svg29"
   sodipodi:docname="php.svg"
   inkscape:version="1.1 (c68e22c387, 2021-05-23)"
   xmlns:inkscape="http://www.inkscape.org/namespaces/inkscape"
   xmlns:sodipodi="http://sodipodi.sourceforge.net/DTD/sodipodi-0.dtd"
   xmlns="http://www.w3.org/2000/svg"
   xmlns:svg="http://www.w3.org/2000/svg">
  <sodipodi:namedview
     id="namedview31"
     pagecolor="#ffffff"
     bordercolor="#111111"
     borderopacity="1"
     inkscape:pageshadow="0"
     inkscape:pageopacity="0"
     inkscape:pagecheckerboard="1"
     showgrid="false"
     inkscape:zoom="3.765"
     inkscape:cx="75.298805"
     inkscape:cy="90.438247"
     inkscape:window-width="2160"
     inkscape:window-height="1346"
     inkscape:window-x="-11"
     inkscape:window-y="-11"
     inkscape:window-maximized="1"
     inkscape:current-layer="svg29" />
  <defs
     id="defs7">
    <linearGradient
       id="a"
       x1="102.005"
       y1="88.535"
       x2="206.735"
       y2="193.265"
       gradientUnits="userSpaceOnUse">
      <stop
         offset="0"
         stop-color="#256db4"
         id="stop2" />
      <stop
         offset="1"
         stop-color="#256db4"
         stop-opacity="0"
         id="stop4" />
    </linearGradient>
    <clipPath
       clipPathUnits="userSpaceOnUse"
       id="clipPath3444">
      <path
   d="M 11.52,162 C 11.52,81.677 135.307,16.561 288,16.561 l 0,0 c 152.693,0 276.481,65.116 276.481,145.439 l 0,0 c 0,80.322 -123.788,145.439 -276.481,145.439 l 0,0 C 135.307,307.439 11.52,242.322 11.52,162"
   id="path3446" />

    </clipPath>
    <radialGradient
       cx="0"
       cy="0"
       fx="0"
       fy="0"
       gradientTransform="matrix(363.05789,0,0,-363.05789,177.52002,256.30713)"
       gradientUnits="userSpaceOnUse"
       id="radialGradient3452"
       r="1"
       spreadMethod="pad">
      <stop
   id="stop3454"
   offset="0"
   style="stop-opacity:1;stop-color:#aeb2d5" />

      <stop
   id="stop3456"
   offset="0.3"
   style="stop-opacity:1;stop-color:#aeb2d5" />

      <stop
   id="stop3458"
   offset="0.75"
   style="stop-opacity:1;stop-color:#484c89" />

      <stop
   id="stop3460"
   offset="1"
   style="stop-opacity:1;stop-color:#484c89" />

    </radialGradient>
    <clipPath
       clipPathUnits="userSpaceOnUse"
       id="clipPath3468">
      <path
   d="M 0,324 576,324 576,0 0,0 0,324 Z"
   id="path3470" />

    </clipPath>
    <clipPath
       clipPathUnits="userSpaceOnUse"
       id="clipPath3480">
      <path
   d="M 0,324 576,324 576,0 0,0 0,324 Z"
   id="path3482" />

    </clipPath>
  </defs>
  <title
     id="title9">css</title>
  <rect
     width="200"
     height="200"
     style="fill:#8993c1;fill-opacity:1"
     id="rect11" />
  <path
     style="fill:none;stroke:#464b00;stroke-width:1px;stroke-linecap:butt;stroke-linejoin:miter;stroke-opacity:0"
     d="M 165.73705,70.916335 C 199.46879,91.89907 200,91.89907 200,91.89907 v 0"
     id="path2344" />
  <text
     xml:space="preserve"
     style="font-style:normal;font-variant:normal;font-weight:normal;font-stretch:normal;font-size:40px;line-height:1.25;font-family:'Comic Sans MS';-inkscape-font-specification:'Comic Sans MS';fill:#000000;fill-opacity:1;stroke:none"
     x="66.401062"
     y="90.836655"
     id="text3425"><tspan
       sodipodi:role="line"
       id="tspan3423"
       x="66.401062"
       y="90.836655" /></text>
  <g
     id="g3438"
     transform="matrix(0.31956544,0,0,-0.37182208,8.6500953,161.09462)">
    <g
   id="g3440">
      <g
   clip-path="url(#clipPath3444)"
   id="g3442">
        <g
   id="g3448">
          <g
   id="g3450">
            <path
   d="M 11.52,162 C 11.52,81.677 135.307,16.561 288,16.561 v 0 c 152.693,0 276.481,65.116 276.481,145.439 v 0 c 0,80.322 -123.788,145.439 -276.481,145.439 v 0 C 135.307,307.439 11.52,242.322 11.52,162"
   id="path3462"
   style="fill:url(#radialGradient3452);stroke:none" />

          </g>

        </g>

      </g>

    </g>

    <g
   id="g3464">
      <g
   clip-path="url(#clipPath3468)"
   id="g3466">
        <g
   id="g3472"
   transform="translate(288,27.3594)">
          <path
   d="M 0,0 C 146.729,0 265.68,60.281 265.68,134.641 265.68,209 146.729,269.282 0,269.282 -146.729,269.282 -265.68,209 -265.68,134.641 -265.68,60.281 -146.729,0 0,0"
   id="path3474"
   style="fill:#777bb3;fill-opacity:1;fill-rule:nonzero;stroke:none" />

        </g>

      </g>

    </g>

    <g
   id="g3476">
      <g
   clip-path="url(#clipPath3480)"
   id="g3478">
        <g
   id="g3484"
   transform="translate(161.7344,145.3066)">
          <path
   d="m 0,0 c 12.065,0 21.072,2.225 26.771,6.611 5.638,4.341 9.532,11.862 11.573,22.353 1.903,9.806 1.178,16.653 -2.154,20.348 C 32.783,53.086 25.417,55 14.297,55 H -4.984 L -15.673,0 Z m -63.063,-67.75 c -0.895,0 -1.745,0.4 -2.314,1.092 -0.57,0.691 -0.801,1.601 -0.63,2.48 L -37.679,81.573 C -37.405,82.982 -36.17,84 -34.734,84 H 26.32 C 45.508,84 59.79,78.79 68.767,68.513 77.792,58.182 80.579,43.741 77.05,25.592 75.614,18.198 73.144,11.331 69.709,5.183 66.27,-0.972 61.725,-6.667 56.198,-11.747 49.582,-17.939 42.094,-22.429 33.962,-25.071 25.959,-27.678 15.681,-29 3.414,-29 h -24.722 l -7.06,-36.322 c -0.274,-1.41 -1.508,-2.428 -2.944,-2.428 z"
   id="path3486"
   style="fill:#000000;fill-opacity:1;fill-rule:nonzero;stroke:none" />

        </g>

        <g
   id="g3488"
   transform="translate(159.2236,197.3071)">
          <path
   d="m 0,0 h 16.808 c 13.421,0 18.083,-2.945 19.667,-4.7 2.628,-2.914 3.124,-9.058 1.435,-17.767 C 36.012,-32.217 32.494,-39.13 27.452,-43.012 22.29,-46.986 13.898,-49 2.511,-49 H -9.523 Z m 28.831,35 h -61.055 c -2.872,0 -5.341,-2.036 -5.889,-4.855 l -28.328,-145.751 c -0.342,-1.759 0.12,-3.578 1.259,-4.961 1.14,-1.383 2.838,-2.183 4.63,-2.183 h 31.75 c 2.873,0 5.342,2.036 5.89,4.855 L -16.324,-84 H 5.925 c 12.582,0 23.174,1.372 31.479,4.077 8.541,2.775 16.399,7.48 23.354,13.984 5.752,5.292 10.49,11.232 14.08,17.657 3.591,6.427 6.171,13.594 7.668,21.302 3.715,19.104 0.697,34.402 -8.969,45.466 C 63.965,29.444 48.923,35 28.831,35 M -16.802,-55 H 2.511 c 12.801,0 22.336,2.411 28.601,7.234 6.266,4.824 10.492,12.875 12.688,24.157 2.101,10.832 1.144,18.476 -2.871,22.929 C 36.909,3.773 28.87,6 16.808,6 H -4.946 L -16.802,-55 M 28.831,29 C 47.198,29 60.597,24.18 69.019,14.539 77.44,4.898 79.976,-8.559 76.616,-25.836 75.233,-32.953 72.894,-39.46 69.601,-45.355 66.304,-51.254 61.999,-56.648 56.679,-61.539 50.339,-67.472 43.296,-71.7 35.546,-74.218 27.796,-76.743 17.925,-78 5.925,-78 h -27.196 l -7.531,-38.75 h -31.75 L -32.224,29 h 61.055"
   id="path3490"
   style="fill:#ffffff;fill-opacity:1;fill-rule:nonzero;stroke:none" />

        </g>

        <g
   id="g3492"
   transform="translate(311.583,116.3066)">
          <path
   d="m 0,0 c -0.896,0 -1.745,0.4 -2.314,1.092 -0.571,0.691 -0.802,1.6 -0.631,2.48 L 9.586,68.061 C 10.778,74.194 10.484,78.596 8.759,80.456 7.703,81.593 4.531,83.5 -4.848,83.5 H -27.55 L -43.305,2.428 C -43.579,1.018 -44.814,0 -46.25,0 h -31.5 c -0.896,0 -1.745,0.4 -2.315,1.092 -0.57,0.691 -0.801,1.601 -0.63,2.48 l 28.328,145.751 c 0.274,1.409 1.509,2.427 2.945,2.427 h 31.5 c 0.896,0 1.745,-0.4 2.315,-1.091 0.57,-0.692 0.801,-1.601 0.63,-2.481 L -21.813,113 H 2.609 c 18.605,0 31.221,-3.28 38.569,-10.028 7.49,-6.884 9.827,-17.891 6.947,-32.719 L 34.945,2.428 C 34.671,1.018 33.437,0 32,0 Z"
   id="path3494"
   style="fill:#000000;fill-opacity:1;fill-rule:nonzero;stroke:none" />

        </g>

        <g
   id="g3496"
   transform="translate(293.6611,271.0571)">
          <path
   d="m 0,0 h -31.5 c -2.873,0 -5.342,-2.036 -5.89,-4.855 l -28.328,-145.751 c -0.342,-1.759 0.12,-3.578 1.26,-4.961 1.14,-1.383 2.838,-2.183 4.63,-2.183 h 31.5 c 2.872,0 5.342,2.036 5.89,4.855 l 15.283,78.645 h 20.229 c 9.363,0 11.328,-2 11.407,-2.086 0.568,-0.611 1.315,-3.441 0.082,-9.781 l -12.531,-64.489 c -0.342,-1.759 0.12,-3.578 1.26,-4.961 1.14,-1.383 2.838,-2.183 4.63,-2.183 h 32 c 2.872,0 5.342,2.036 5.89,4.855 l 13.179,67.825 c 3.093,15.921 0.447,27.864 -7.861,35.5 -7.928,7.281 -21.208,10.82 -40.599,10.82 H -0.253 L 5.89,-7.145 C 6.231,-5.386 5.77,-3.566 4.63,-2.184 3.49,-0.801 1.792,0 0,0 m 0,-6 -7.531,-38.75 h 28.062 c 17.657,0 29.836,-3.082 36.539,-9.238 6.703,-6.16 8.711,-16.141 6.032,-29.938 l -13.18,-67.824 h -32 l 12.531,64.488 c 1.426,7.336 0.902,12.34 -1.574,15.008 -2.477,2.668 -7.746,4.004 -15.805,4.004 h -25.176 l -16.226,-83.5 h -31.5 L -31.5,-6 H 0"
   id="path3498"
   style="fill:#ffffff;fill-opacity:1;fill-rule:nonzero;stroke:none" />

        </g>

        <g
   id="g3500"
   transform="translate(409.5498,145.3066)">
          <path
   d="m 0,0 c 12.065,0 21.072,2.225 26.771,6.611 5.638,4.34 9.532,11.861 11.574,22.353 1.903,9.806 1.178,16.653 -2.155,20.348 C 32.783,53.086 25.417,55 14.297,55 H -4.984 L -15.673,0 Z m -63.062,-67.75 c -0.895,0 -1.745,0.4 -2.314,1.092 -0.57,0.691 -0.802,1.601 -0.631,2.48 L -37.679,81.573 C -37.404,82.982 -36.17,84 -34.733,84 H 26.32 C 45.509,84 59.79,78.79 68.768,68.513 77.793,58.183 80.579,43.742 77.051,25.592 75.613,18.198 73.144,11.331 69.709,5.183 66.27,-0.972 61.725,-6.667 56.198,-11.747 49.582,-17.939 42.094,-22.429 33.962,-25.071 25.959,-27.678 15.681,-29 3.414,-29 h -24.723 l -7.057,-36.322 c -0.275,-1.41 -1.509,-2.428 -2.946,-2.428 z"
   id="path3502"
   style="fill:#000000;fill-opacity:1;fill-rule:nonzero;stroke:none" />

        </g>

        <g
   id="g3504"
   transform="translate(407.0391,197.3071)">
          <path
   d="M 0,0 H 16.808 C 30.229,0 34.891,-2.945 36.475,-4.7 39.104,-7.614 39.6,-13.758 37.91,-22.466 36.012,-32.217 32.493,-39.13 27.452,-43.012 22.29,-46.986 13.898,-49 2.511,-49 H -9.522 Z m 28.831,35 h -61.054 c -2.872,0 -5.341,-2.036 -5.889,-4.855 L -66.44,-115.606 c -0.342,-1.759 0.12,-3.578 1.259,-4.961 1.14,-1.383 2.838,-2.183 4.63,-2.183 h 31.75 c 2.872,0 5.342,2.036 5.89,4.855 L -16.324,-84 H 5.925 c 12.582,0 23.174,1.372 31.479,4.077 8.541,2.775 16.401,7.481 23.356,13.986 5.752,5.291 10.488,11.23 14.078,17.655 3.591,6.427 6.171,13.594 7.668,21.302 3.715,19.105 0.697,34.403 -8.969,45.467 C 63.965,29.444 48.924,35 28.831,35 M -16.801,-55 H 2.511 c 12.801,0 22.336,2.411 28.601,7.234 6.267,4.824 10.492,12.875 12.688,24.157 2.102,10.832 1.145,18.476 -2.871,22.929 C 36.909,3.773 28.87,6 16.808,6 H -4.946 L -16.801,-55 M 28.831,29 C 47.198,29 60.597,24.18 69.019,14.539 77.441,4.898 79.976,-8.559 76.616,-25.836 75.233,-32.953 72.894,-39.46 69.601,-45.355 66.304,-51.254 61.999,-56.648 56.679,-61.539 50.339,-67.472 43.296,-71.7 35.546,-74.218 27.796,-76.743 17.925,-78 5.925,-78 h -27.196 l -7.53,-38.75 h -31.75 L -32.223,29 h 61.054"
   id="path3506"
   style="fill:#ffffff;fill-opacity:1;fill-rule:nonzero;stroke:none" />

        </g>

      </g>

    </g>

  </g>
  <path
     style="fill:none;stroke:#5b628a;stroke-width:0.0744477;stroke-linecap:butt;stroke-linejoin:miter;stroke-miterlimit:4;stroke-dasharray:none;stroke-opacity:1"
     d="m 177.28268,73.82806 c 22.72547,18.080932 22.72547,18.080932 22.72547,18.080932"
     id="path8860" />
  <path
     style="fill:none;stroke:#5b628a;stroke-width:0.074;stroke-linecap:butt;stroke-linejoin:miter;stroke-opacity:1;stroke-miterlimit:4;stroke-dasharray:none"
     d="m 18.326693,120.18592 c 50.59761,79.94688 50.863214,80.21249 50.863214,80.21249 v 0 0"
     id="path9197" />
  <path
     style="fill:#8993c1;fill-opacity:1;stroke:#5b628a;stroke-width:0.00982736;stroke-miterlimit:4;stroke-dasharray:none;stroke-opacity:1"
     d="M 67.255177,197.17795 C 55.85926,179.30891 21.831131,125.53496 21.885266,125.48082 c 0.02787,-0.0279 0.312064,0.2634 0.631535,0.64727 0.967629,1.16267 3.95712,4.16993 5.438046,5.47035 13.596622,11.93944 33.871372,19.94139 57.038513,22.51171 5.424932,0.60188 9.391777,0.8072 15.60425,0.80765 10.33213,8e-4 18.404,-0.77307 27.76206,-2.66146 31.51125,-6.35874 54.58576,-23.03066 59.67783,-43.11873 0.76958,-3.03597 0.93185,-4.47685 0.93185,-8.2744 0,-3.045979 -0.0401,-3.751425 -0.29813,-5.24568 -1.19669,-6.930066 -4.22337,-13.318013 -9.06689,-19.136176 -0.65231,-0.78357 -1.16166,-1.449038 -1.13187,-1.478816 0.0298,-0.02978 4.87071,3.77865 10.75763,8.463175 l 10.70351,8.517318 V 145.95831 199.9336 H 134.47309 69.012579 Z"
     id="path9427" />
  <path
     style="fill:#8993c1;fill-opacity:1;stroke:#5b628a;stroke-width:0.00982736;stroke-miterlimit:4;stroke-dasharray:none;stroke-opacity:1"
     d="m 68.677324,199.27391 c -2.443017,-3.69165 -45.727038,-72.10503 -45.862886,-72.48945 -0.04354,-0.12322 0.960774,0.81522 2.231816,2.08543 2.964819,2.96286 5.298468,4.93676 8.685486,7.34656 14.834491,10.55446 35.690401,17.18113 58.432935,18.56624 3.02849,0.18445 13.545685,0.18558 16.865865,0.002 17.35758,-0.96069 34.11429,-5.18897 47.67597,-12.03023 13.57589,-6.84844 23.39346,-15.79513 28.46159,-25.93688 1.79262,-3.58718 2.94728,-7.02262 3.57001,-10.62184 0.33245,-1.92143 0.33399,-8.878719 0.002,-10.64443 -1.29385,-6.88896 -4.03836,-12.773741 -8.66135,-18.57163 -1.40406,-1.760892 -1.72009,-2.291466 -0.85158,-1.42967 0.24956,0.247624 1.67884,1.416591 3.17619,2.597703 4.95647,3.909689 6.01779,4.74947 8.85004,7.002696 1.54415,1.228464 4.09485,3.249507 5.66821,4.491207 l 2.86063,2.257636 0.009,53.950868 0.009,53.95086 h -65.3874 -65.387401 l -0.348675,-0.52689 z"
     id="path9466" />
  <path
     style="fill:#8993c1;fill-opacity:1;stroke:#5b628a;stroke-width:0.00982736;stroke-miterlimit:4;stroke-dasharray:none;stroke-opacity:1"
     d="m 67.028845,196.58035 c -3.121247,-4.86426 -19.107108,-30.0934 -31.197502,-49.23639 -10.530639,-16.6734 -12.401166,-19.65457 -12.497536,-19.91808 -0.04052,-0.11079 0.909025,0.75473 2.110102,1.92339 3.515855,3.42096 6.550111,5.84674 10.811071,8.64307 13.294689,8.72488 31.462822,14.59992 50.863214,16.44768 4.545932,0.43297 6.086495,0.48927 13.413016,0.49019 8.73031,0.001 12.02577,-0.18014 18.52589,-1.01886 19.90722,-2.56866 38.20224,-9.51231 50.86088,-19.30363 10.25506,-7.93218 16.46595,-17.02989 18.68179,-27.36508 0.28834,-1.34488 0.33757,-1.97853 0.40281,-5.18421 0.0871,-4.277579 -0.0501,-6.13736 -0.62666,-8.499333 -1.50253,-6.155161 -3.93441,-11.095898 -8.05098,-16.356859 -0.60965,-0.77914 -1.10847,-1.447055 -1.10847,-1.484254 0,-0.0372 1.50896,1.13818 3.35325,2.611955 1.84429,1.473774 4.18991,3.341118 5.21248,4.149654 1.02258,0.808536 3.02457,2.393444 4.44888,3.52202 1.4243,1.128575 3.68027,2.916034 5.01328,3.972129 l 2.42363,1.920177 v 53.887041 53.88703 H 134.33905 69.010096 Z"
     id="path9505" />
  <path
     style="fill:#8993c1;fill-opacity:1;stroke:#5b628a;stroke-width:0.00982736;stroke-miterlimit:4;stroke-dasharray:none;stroke-opacity:1"
     d="m 68.508356,198.77158 c -7.996541,-12.44881 -44.803177,-70.69164 -44.803177,-70.89655 0,-0.0447 0.851594,0.7203 1.892431,1.70008 2.517659,2.36998 3.8554,3.53684 5.610889,4.89416 13.21448,10.21731 31.481336,17.06716 52.390439,19.6458 6.488698,0.80023 14.138191,1.07285 22.841962,0.81407 5.15396,-0.15324 7.74676,-0.34355 12.0186,-0.88216 29.92956,-3.77365 54.64779,-16.79893 65.26658,-34.39227 2.59974,-4.30725 4.7808,-10.22028 5.1851,-14.05714 0.20982,-1.99112 0.16484,-8.261955 -0.071,-9.896595 -0.25422,-1.762227 -1.08596,-4.865543 -1.88952,-7.050074 -1.27264,-3.459691 -3.76935,-7.869142 -6.31722,-11.156846 -0.47943,-0.618641 -0.84795,-1.148541 -0.81894,-1.177556 0.029,-0.02901 1.20612,0.864123 2.61579,1.98475 3.30918,2.63065 7.97089,6.329088 10.01353,7.944395 0.88396,0.699026 2.84113,2.250694 4.34927,3.448152 l 2.74207,2.177195 v 53.832099 53.8321 H 134.26703 68.998866 Z"
     id="path9544" />
  <path
     style="fill:#8993c1;fill-opacity:1;stroke:#5b628a;stroke-width:0.00982736;stroke-miterlimit:4;stroke-dasharray:none;stroke-opacity:1"
     d="M 68.371363,198.43958 C 64.986228,193.16228 51.616377,172.07619 42.162697,157.10491 27.225858,133.45026 24.195341,128.61564 24.2625,128.54848 c 0.0312,-0.0312 0.680512,0.51709 1.442926,1.21842 5.096069,4.68774 8.594228,7.3056 13.936008,10.42906 14.480188,8.46688 33.331837,13.71533 52.855246,14.71534 3.371343,0.17268 12.2178,0.17136 16.26826,-0.002 16.86119,-0.72346 34.34598,-5.1128 48.13833,-12.08455 10.86214,-5.49058 19.39967,-12.43507 25.06275,-20.3862 2.79398,-3.92286 5.20047,-9.04955 6.34,-13.50652 0.71702,-2.80446 0.76686,-3.409 0.70968,-8.60906 -0.0505,-4.5908 -0.0608,-4.743698 -0.42295,-6.298638 -0.53568,-2.299708 -1.44025,-5.136333 -2.21187,-6.936156 -1.19083,-2.777622 -3.51979,-6.757512 -5.43439,-9.286636 -0.36828,-0.486498 -0.64204,-0.912118 -0.60834,-0.945822 0.0782,-0.07822 0.0207,-0.123091 10.4321,8.138069 0.83998,0.666496 2.57304,2.040566 3.85126,3.053489 1.27822,1.012922 2.87683,2.284089 3.55246,2.824815 l 1.22842,0.983139 v 53.77379 53.7738 H 134.19568 68.988963 l -0.6176,-0.96282 z"
     id="path9583" />
  <path
     style="fill:#8993c1;fill-opacity:1;stroke:#5b628a;stroke-width:0.00982736;stroke-miterlimit:4;stroke-dasharray:none;stroke-opacity:1"
     d="M 64.349825,191.99867 C 44.320385,160.48418 24.582677,129.15792 24.688893,129.0517 c 0.033,-0.033 0.91581,0.70814 1.961787,1.64699 4.468693,4.01101 7.411024,6.2038 12.12754,9.03814 12.00795,7.21603 27.236723,12.22554 43.492696,14.30693 6.480736,0.82978 9.593145,1.0004 18.260294,1.00099 10.2605,6.6e-4 15.26086,-0.34779 22.89301,-1.59546 19.81649,-3.23954 37.23061,-10.65183 49.41775,-21.03458 1.70338,-1.45119 5.17277,-4.9185 6.45576,-6.45189 3.98813,-4.7665 6.61575,-9.40697 8.42216,-14.87384 1.23518,-3.73812 1.25753,-3.92107 1.25753,-10.29217 V 95.219124 L 188.60875,93.7583 c -0.46052,-1.824677 -1.32846,-4.599447 -1.84709,-5.905038 -0.98738,-2.485601 -3.33494,-6.692927 -5.16846,-9.263005 -0.50226,-0.704007 -0.88667,-1.306524 -0.85426,-1.338927 0.0632,-0.06318 0.18882,0.03145 3.1256,2.353987 5.51097,4.358314 5.9332,4.693144 11.45419,9.08305 l 3.95086,3.141455 v 53.786288 53.78628 H 134.16247 69.055353 Z"
     id="path9622" />
  <path
     style="fill:#5b628a;fill-opacity:1;stroke:#5b628a;stroke-width:0.00982736;stroke-miterlimit:4;stroke-dasharray:none;stroke-opacity:1"
     d="M 65.776705,194.12351 C 63.981972,191.29316 60.256907,185.42165 57.498786,181.0757 40.46864,154.24144 24.960524,129.57688 25.057411,129.48 c 0.02513,-0.0251 1.163321,0.92806 2.52932,2.11819 4.22967,3.68514 6.908571,5.63523 11.589896,8.43681 2.561535,1.53297 7.825477,4.19885 10.690571,5.41414 11.89252,5.04448 24.459461,8.07735 38.77822,9.35863 2.69535,0.24119 20.975782,0.24089 24.037182,-4e-4 12.0919,-0.953 24.14507,-3.62986 34.81879,-7.7328 9.41724,-3.61996 17.3587,-8.10936 24.4139,-13.80147 1.88606,-1.52167 6.85916,-6.50871 8.28309,-8.30631 3.46579,-4.37531 5.89347,-8.83434 7.59179,-13.94422 1.16658,-3.50997 1.14597,-3.3419 1.21671,-9.91925 l 0.0624,-5.802372 -0.42452,-1.634543 c -1.4249,-5.486417 -3.08756,-9.167228 -6.45214,-14.283935 -0.68442,-1.040836 -1.21592,-1.89243 -1.18111,-1.89243 0.0604,0 2.67935,2.051171 7.30188,5.718758 5.3123,4.214857 6.51344,5.166364 8.59299,6.807107 l 2.21849,1.750363 0.006,53.751662 0.006,53.75166 H 134.08838 69.039912 l -3.263154,-5.14608 z"
     id="path9698" />
  <path
     style="fill:#5b628a;fill-opacity:1;stroke:#5b628a;stroke-width:0.00982736;stroke-miterlimit:4;stroke-dasharray:none;stroke-opacity:1"
     d="m 68.468572,199.10359 c -0.289434,-0.45651 -0.941785,-1.48305 -1.449669,-2.2812 -0.507885,-0.79815 -0.892108,-1.5328 -0.853829,-1.63256 0.03828,-0.0998 0.08528,-0.16385 0.104446,-0.14244 0.145283,0.1623 2.55966,4.07334 2.626949,4.2554 0.08167,0.22096 3.293578,0.23078 65.262711,0.1994 l 65.17681,-0.033 -65.20584,-0.0667 -65.205847,-0.0667 65.139447,-0.0663 65.13944,-0.0663 0.0664,-53.68526 c 0.0365,-29.5269 0.11122,-53.685262 0.166,-53.685262 0.0548,10e-7 0.15922,10e-7 0.23209,10e-7 0.0878,0 0.14377,18.215481 0.166,54.050461 l 0.0335,54.05047 H 134.43099 68.994815 Z"
     id="path9905" />
  <path
     style="fill:#5b628a;fill-opacity:1;stroke:#5b628a;stroke-width:0.00982736;stroke-miterlimit:4;stroke-dasharray:none;stroke-opacity:1"
     d="m 68.889847,199.6698 c -0.09061,-0.14509 -0.164747,-0.28378 -0.164747,-0.3082 0,-0.0244 0.313745,2.7e-4 0.697211,0.0549 0.383466,0.0546 27.739044,0.0925 60.790169,0.0843 l 60.09296,-0.015 -60.61706,-0.14127 -60.61706,-0.14126 -4.171972,-6.57371 c -14.875537,-23.4392 -27.311924,-43.1253 -34.313333,-54.31615 -4.778081,-7.63714 -5.222638,-8.36653 -5.099314,-8.36653 0.04418,0 1.17038,0.9338 2.502659,2.07512 5.002669,4.28561 8.875065,6.92353 14.640122,9.97299 11.843602,6.26474 25.198693,10.32246 40.305445,12.24614 5.836401,0.7432 5.646112,0.73535 17.795483,0.7343 12.28418,-10e-4 12.21783,0.002 18.4595,-0.80417 17.58457,-2.27077 34.04513,-8.04 46.54176,-16.31233 2.63773,-1.74609 5.84496,-4.17314 7.52315,-5.69311 1.91271,-1.73237 5.97489,-5.90773 7.06943,-7.2664 2.24891,-2.79159 4.83821,-7.15686 6.31195,-10.6412 0.74539,-1.76235 1.82282,-4.96121 2.08674,-6.1955 0.17394,-0.81354 0.239,-2.22608 0.3163,-6.8675 l 0.0973,-5.843294 -0.45029,-1.726428 c -1.33704,-5.126185 -2.81203,-8.493109 -5.81349,-13.270311 -0.77335,-1.230891 -1.37864,-2.265438 -1.34509,-2.298994 0.0795,-0.07949 -0.0946,-0.214692 9.34959,7.26183 l 8.1267,6.433561 0.011,14.947576 c 0.006,8.22117 0.0248,15.24639 0.0416,15.6116 0.0168,0.3652 0.0417,17.8403 0.0554,38.83355 0.0136,20.99325 0.0472,38.14464 0.0745,38.11421 0.0274,-0.0304 0.0931,-23.87007 0.14613,-52.97698 0.053,-29.10691 0.1373,-53.280212 0.18731,-53.718459 0.1548,-1.356183 0.28084,29.825359 0.28084,69.477519 l 3e-5,37.893 h -65.3731 c -65.08043,0 -65.373843,-0.001 -65.537853,-0.2638 z"
     id="path9944" />
</svg>
